PathFileType	4	(X/Y/Z)	T00_Trial_0-100.trc
DataRate	CameraRate	NumFrames	NumMarkers	Units	OrigDataRate	OrigDataStartFrame	OrigNumFrames
60	60	9	22	m	60	87	100
Frame#	Time	Hip			RHip			RKnee			RAnkle			RBigToe			RSmallToe			RHeel			LHip			LKnee			LAnkle			LBigToe			LSmallToe			LHeel			Neck			Head			Nose			RShoulder			RElbow			RWrist			LShoulder			LElbow			LWrist		
		X1	Y1	Z1	X2	Y2	Z2	X3	Y3	Z3	X4	Y4	Z4	X5	Y5	Z5	X6	Y6	Z6	X7	Y7	Z7	X8	Y8	Z8	X9	Y9	Z9	X10	Y10	Z10	X11	Y11	Z11	X12	Y12	Z12	X13	Y13	Z13	X14	Y14	Z14	X15	Y15	Z15	X16	Y16	Z16	X17	Y17	Z17	X18	Y18	Z18	X19	Y19	Z19	X20	Y20	Z20	X21	Y21	Z21	X22	Y22	Z22
87	1.45	0.0052706678418768605	0.9252361441387742	-0.7562039669018232	-0.09499416545852897	0.915583762059523	-0.7533415619208454	-0.07868815374798059	0.5275610105787191	-0.636770869489114	-0.046713234640074264	0.1368421063283222	-0.7354131323210225	-0.062078935881504586	0.04198619260809108	-0.5845284203241825	-0.10585107946010112	0.050956579121682236	-0.6137338770477467	-0.03880084627802938	0.08166883902332059	-0.7735264593543771	0.1022582491825626	0.9031400789912626	-0.7564277283334043	0.078662019084467	0.5072378999842289	-0.6976958608069754	0.041378625380107406	0.24678631661050646	-0.9861392116146395	0.01000588587379758	0.11839177217959052	-0.8908597776624486	0.04871733029661643	0.12177758385780199	-0.9369550520202703	0.029757007506690088	0.22415744710002378	-1.0691091126262482	-0.038536913211314305	1.439341532983202	-0.6461685489739039	-0.026444095922337846	1.6291892431578636	-0.43875324001586563	-0.06603507806918979	1.4900835787271116	-0.45331567530926625	-0.2174073182610723	1.3789505166820981	-0.6784940380654344	-0.42969572815694723	1.2155625569925168	-0.7253685447831982	-0.4917553706125195	1.243411920608703	-0.44004048947600666	0.15693927222236076	1.430606402418445	-0.6762201983511572	0.34289532745631396	1.3782755703584333	-0.8883874621324824	0.6632326014553559	1.2658771424007038	-0.677693387285139
88	1.4666666666666666	0.010929357194824298	0.9228083343479146	-0.7510482757538555	-0.09241381554448472	0.9133130681495768	-0.7540755207253388	-0.07895160494399285	0.5312924197045026	-0.629845136898877	-0.0487792215317341	0.13967839659468537	-0.7298238544714266	-0.06153593971615186	0.04749064576629876	-0.5815832228101261	-0.10940251208019214	0.0559664138595304	-0.6123080583979216	-0.04122401639345483	0.0847936447542177	-0.7660412595412938	0.10869807168490085	0.9018625895176141	-0.7489466577604661	0.08278666860839244	0.5130826955856921	-0.6726035354902444	0.04906000288624564	0.2470640575397218	-0.9454313410682575	0.014310599016909932	0.1269267561039464	-0.8629559827513208	0.058538065941295354	0.12911561336587649	-0.9003861321400002	0.04989374421318075	0.1958800484301615	-0.9823759358122555	-0.05188616651964362	1.4363786959892477	-0.6310845501418242	-0.07027047241468784	1.64799335355302	-0.40124945541037865	-0.07990969428032431	1.48836659316516	-0.41087287021861346	-0.225961273371915	1.3694766868994523	-0.6764343791340071	-0.43416625710935197	1.1994170527602632	-0.7201587594691508	-0.5098354116809015	1.217535545992899	-0.46767500816893925	0.1466242765526051	1.4383877849085334	-0.6713861438737406	0.3743542520902569	1.3974214901591782	-0.7266175325326393	0.5744947348114924	1.3831362371562688	-0.6112359799798597
89	1.4833333333333334	0.013744114907714138	0.9250731543935861	-0.7353747413304369	-0.08847273290355023	0.9122822609878775	-0.7424530971372679	-0.07661516682423568	0.5292597537879606	-0.6328685661945612	-0.051864439173132465	0.13842772310695256	-0.7186739011603785	-0.042196791977078096	0.054967493956217466	-0.5807068482067994	-0.09434112128194672	0.07084680963548899	-0.6043993609396562	-0.042332609319616146	0.08548185339145536	-0.7645413771308094	0.11071510551325871	0.906568149947185	-0.7330768797240684	0.08469020204805164	0.5184556596527186	-0.648111318092918	0.060312287327114286	0.24552313207161183	-0.9050412463149372	0.028545321509702577	0.14285530900772356	-0.8212854763533096	0.07656676454734361	0.14003407292326084	-0.8569813036436199	0.038695822709743165	0.2254015408945341	-0.9981900516698077	-0.06003215272032077	1.433815590523356	-0.6194176898792823	-0.08150221920609646	1.6302171864604955	-0.38615099780897	-0.08160785681559718	1.4687141217723603	-0.39291848930632184	-0.22932758453939503	1.3625020984305745	-0.671234642685053	-0.4318641793272243	1.181572210957043	-0.7127292013785632	-0.5093245961948667	1.1985882428647496	-0.4400390915403767	0.13233536031785106	1.4364414707605269	-0.674114880352368	0.37351545122979374	1.4144214225852534	-0.7148557656652753	0.647120489051569	1.374850175892587	-0.6598913434737422
90	1.5	0.02050209500636276	0.920495787515919	-0.7271782379772946	-0.08164375466223224	0.909252744754744	-0.7284474347188487	-0.07670427256619097	0.5267274881162057	-0.626375803163368	-0.054826433209947525	0.14675323198257098	-0.7201126597567555	-0.06565001403931066	0.05616215931188227	-0.57319682888131	-0.10799106211560343	0.05758599206771683	-0.6101321488687577	-0.045036569504912166	0.09731635061675241	-0.7540174664844044	0.1199545570832559	0.9040869586511665	-0.7157695492556394	0.08483033977572116	0.5271639789275937	-0.6220243324059139	0.06306964481810949	0.24761599198683093	-0.8740924652737303	0.03059085181494707	0.14927588495793478	-0.7836500076953982	0.08588714285762064	0.14981942233037326	-0.8002521676303823	0.04881143884976217	0.21585514776586676	-0.9581453533323091	-0.06658758326381817	1.4335188762935471	-0.6035123990108208	-0.09736819361239148	1.6255163028296988	-0.3729590942944306	-0.09769536176793576	1.457969291437887	-0.3787514324924266	-0.2323774708528232	1.355088314343474	-0.6602312160944259	-0.4248028652565879	1.1664675599868355	-0.7053745449658471	-0.5194351416536704	1.1751921323599568	-0.4395756068688209	0.11078514025798664	1.434722575406671	-0.725497130456059	0.3608197522086728	1.4300646054258959	-0.680382930053718	0.6350992600563549	1.4106549052178734	-0.6379876737135557
91	1.5166666666666666	0.02768856030256357	0.9191182809583203	-0.7189489270598219	-0.07667835567034786	0.9056945474987481	-0.7228549651750386	-0.07892073474478735	0.5214620772966686	-0.627262332747067	-0.06021490615221581	0.14740938416406618	-0.718797776543142	-0.06684495636204389	0.05556314001763098	-0.5779290760814202	-0.10743379920625076	0.05063939388657372	-0.6229649025849346	-0.04852925489947545	0.1003070282192638	-0.7611349822362062	0.12488384537920615	0.9036114931762897	-0.7112107436058637	0.08427365474945245	0.5294247065054826	-0.6073428569437469	0.06688679809993192	0.24205170297952314	-0.8359963974129221	0.035134391694741425	0.14018109378855875	-0.7198791252821616	0.09099748153541515	0.15096790052174477	-0.7481821062979757	0.05717142642844418	0.2037987520507333	-0.896522949902576	-0.07484652021675985	1.429908256706554	-0.5902760798597562	-0.1093197960002152	1.6173035966567737	-0.36460798252654375	-0.1119816078671113	1.4544777049765938	-0.3577299527248103	-0.2390028265352406	1.346346546290887	-0.6579199259573562	-0.41859707866262724	1.1477336686983828	-0.7111499417327174	-0.518334242289841	1.1527840602794093	-0.43811133836464256	0.12162477926016252	1.4430116899472543	-0.6278681721459691	0.3491505241563221	1.4479714422812997	-0.6657966593013159	0.614902324023361	1.4473982251849802	-0.6075976943457249
92	1.5333333333333334	0.027194865128529803	0.9241385757188424	-0.7159150667597483	-0.07370146452422638	0.907861536694377	-0.7276250249436709	-0.08516249913372194	0.5087774050807095	-0.6503433563000814	-0.06273637986027451	0.15174978082683604	-0.7173942036327444	-0.07150617594470023	0.050049017879810594	-0.5640558907046984	-0.10955281242423684	0.0445218364133211	-0.6184977820390781	-0.052679200911008243	0.10714373039053528	-0.7635274780932002	0.09087890943648311	0.9206576883241407	-0.8135420277286934	0.08283653003945975	0.5326987199370953	-0.5939072009168429	0.071999636639201	0.2333684388940126	-0.7916827247115175	0.03481672853742063	0.12874491093543522	-0.6565790345714798	0.08994974484283419	0.14556655989114267	-0.6844681108974278	0.06973912434843173	0.1860226757586978	-0.8425736962094061	-0.08244894493528741	1.4240319980381262	-0.5844078679949732	-0.12572554039334657	1.6138561098930087	-0.3455984819709779	-0.12242276323757599	1.4502124624870136	-0.35007059669060864	-0.24247872585244973	1.3398478910686027	-0.6427548587685084	-0.4177412553481294	1.1360669653506252	-0.7043286027854878	-0.5261212012320681	1.138072386731959	-0.42885486167215703	0.09808022569105185	1.4454678462253305	-0.703426352964483	0.353662505783714	1.4599723252874786	-0.6600489690146214	0.5664394102464712	1.4887045955589022	-0.5870406521767831
93	1.55	0.028820927818453378	0.9217112387970172	-0.7121153876391336	-0.07290132067527547	0.9107735079722119	-0.7224352130445942	-0.08448217973970049	0.5089760632618515	-0.642768433265432	-0.05908385961206079	0.16068761038111148	-0.7235753753137557	-0.06730435626079315	0.053076506549021824	-0.5708389330407105	-0.10336472526317358	0.04642870698226199	-0.6228782746763682	-0.04594827481546521	0.11487750801672646	-0.7715992944017537	0.1298850238698591	0.9068794210350314	-0.6966780970835876	0.08073610402925041	0.5418474104586567	-0.5725963474511635	0.07154274963891206	0.2211004398865342	-0.74932411944389	0.033990736957117136	0.1282189636472643	-0.5983676403839748	0.09139784465728361	0.1387174657321802	-0.6347121218340855	0.07106395482122754	0.17508244338205461	-0.8027466923991894	-0.0890546256530511	1.4276372641312023	-0.5714381095441106	-0.14268193582866034	1.6026978891058388	-0.33699398589568275	-0.1321002133528073	1.44262884694228	-0.33157032129088126	-0.24208683836463427	1.3359650678890909	-0.647801936668799	-0.4158677963261589	1.1237672484931926	-0.6986129606619511	-0.5233812081661665	1.1177680249364879	-0.42850563192989805	0.0944488686924078	1.4463632070282344	-0.6983295558494008	0.2922714110561173	1.4696430487086336	-0.817343672940814	0.5820252610936277	1.4962848658069057	-0.5632226877822218
94	1.5666666666666667	0.029541993139573466	0.9193108970567629	-0.7088078315594423	-0.07032757020415327	0.9055820217773541	-0.7205682313520307	-0.08559993626450801	0.5080104409713405	-0.6399199068173534	-0.056634076972978155	0.1559803583420391	-0.7329174104001775	-0.07393924960240689	0.06165248488591043	-0.5625630450548867	-0.10711776650927378	0.05418947127848411	-0.6180644194388288	-0.04349716611344089	0.10990940163578572	-0.7756304506656048	0.0975372388631059	0.9205720145237893	-0.7871705826892857	0.07967981546896744	0.5440747750184879	-0.5555958385909258	0.07166137022424353	0.21437841179723913	-0.7159555152174669	0.028950317790943793	0.13264575941278306	-0.5587683079681082	0.08878016185850351	0.13383108577355735	-0.5986253131395286	0.06935753942941289	0.16456126795055756	-0.7701743253148099	-0.09369158882404154	1.4219561686244937	-0.5710917765738968	-0.14982585656608002	1.6053305357242016	-0.32735367061690557	-0.13675597989717994	1.4473657195451282	-0.3352104277204863	-0.24347674263996955	1.3303382761795146	-0.6348567687405907	-0.409901910813191	1.1209207580665406	-0.678830838603158	-0.5276342835597632	1.1019393607927086	-0.42743590310875607	0.0892319078866358	1.4501972280543314	-0.6967049268542118	0.29040447124159785	1.4708547988519936	-0.8109412399160089	0.5361531718257715	1.5233712157431194	-0.5363597469053893
95	1.5833333333333333	0.03236852812403319	0.9215988763890044	-0.6991905081099994	-0.06781484106926756	0.9060861535101524	-0.7089787239179032	-0.08460809651266983	0.5117642884939669	-0.6410918289853532	-0.05290842783465425	0.14869182325410546	-0.7292802136599122	-0.06436809406274073	0.06864418287756203	-0.5507471600966697	-0.10648092864205837	0.05629298585610219	-0.6156412970109246	-0.04201929036956123	0.10577454462052133	-0.7792146133084852	0.13283413063758204	0.9067652061802319	-0.6758259773929501	0.0750041532373108	0.5509625752894528	-0.5441896318891118	0.0750427049427506	0.21636300305010217	-0.6706189485588013	0.02846432424940768	0.13789509204370334	-0.513507873668378	0.08293082714152351	0.13734468946133851	-0.5477188717572106	0.07147213217565043	0.17105433644727525	-0.7124143245746856	-0.09682231246787866	1.4201529835074815	-0.5634630485292978	-0.15512822036352777	1.6041441311909403	-0.3226847964744642	-0.1424733821931459	1.448573122670021	-0.3293683267526904	-0.2475591450847573	1.3295067536758316	-0.6333301464592171	-0.403858295919345	1.112303414444402	-0.6925210858987088	-0.5212247829419399	1.0904980754186566	-0.437157094571927	0.08482356486225988	1.4529833747557745	-0.679060775657185	0.3123277335188117	1.487887606621365	-0.5733806458699465	0.5233623054302408	1.5386429898774039	-0.5116616815341626
